<mxfile host="app.diagrams.net" agent="Mozilla/5.0 (Windows NT 10.0; Win64; x64) AppleWebKit/537.36 (KHTML, like Gecko) Chrome/132.0.0.0 Safari/537.36" version="26.0.13" pages="2">
  <diagram name="‫עמוד-1‬" id="zMxaSVOMc_Qd1jGQBjq7">
    <mxGraphModel dx="2920" dy="1543" grid="0" gridSize="10" guides="1" tooltips="1" connect="1" arrows="1" fold="1" page="0" pageScale="1" pageWidth="827" pageHeight="1169" math="0" shadow="0">
      <root>
        <mxCell id="0" />
        <mxCell id="1" parent="0" />
        <mxCell id="uiVuiFmTCqUrsQ9-QrvC-1" value="&lt;font style=&quot;font-size: 20px;&quot;&gt;&lt;b&gt;מוצר&lt;/b&gt;&lt;/font&gt;" style="rounded=0;whiteSpace=wrap;html=1;" parent="1" vertex="1">
          <mxGeometry x="52" y="-2" width="120" height="60" as="geometry" />
        </mxCell>
        <mxCell id="uiVuiFmTCqUrsQ9-QrvC-2" value="&lt;b&gt;&lt;font style=&quot;font-size: 20px;&quot;&gt;הזמנה&lt;/font&gt;&lt;/b&gt;" style="rounded=0;whiteSpace=wrap;html=1;" parent="1" vertex="1">
          <mxGeometry x="56" y="339" width="120" height="60" as="geometry" />
        </mxCell>
        <mxCell id="uiVuiFmTCqUrsQ9-QrvC-3" value="&lt;font style=&quot;font-size: 20px;&quot;&gt;&lt;b&gt;מנהל&lt;/b&gt;&lt;/font&gt;" style="rounded=0;whiteSpace=wrap;html=1;" parent="1" vertex="1">
          <mxGeometry x="-594" y="295" width="120" height="60" as="geometry" />
        </mxCell>
        <mxCell id="uiVuiFmTCqUrsQ9-QrvC-4" value="&lt;b&gt;&lt;font style=&quot;font-size: 20px;&quot;&gt;משתמש&lt;/font&gt;&lt;/b&gt;" style="rounded=0;whiteSpace=wrap;html=1;" parent="1" vertex="1">
          <mxGeometry x="-589" y="-9" width="120" height="60" as="geometry" />
        </mxCell>
        <mxCell id="uiVuiFmTCqUrsQ9-QrvC-5" value="" style="triangle;whiteSpace=wrap;html=1;rotation=-90;" parent="1" vertex="1">
          <mxGeometry x="-561" y="123" width="60" height="80" as="geometry" />
        </mxCell>
        <mxCell id="uiVuiFmTCqUrsQ9-QrvC-6" value="&lt;b&gt;isA&lt;/b&gt;" style="text;html=1;align=center;verticalAlign=middle;whiteSpace=wrap;rounded=0;" parent="1" vertex="1">
          <mxGeometry x="-564" y="155" width="60" height="30" as="geometry" />
        </mxCell>
        <mxCell id="uiVuiFmTCqUrsQ9-QrvC-11" value="" style="endArrow=none;html=1;rounded=0;fontSize=12;startSize=8;endSize=8;curved=1;exitX=1;exitY=0.5;exitDx=0;exitDy=0;entryX=0.5;entryY=1;entryDx=0;entryDy=0;" parent="1" source="uiVuiFmTCqUrsQ9-QrvC-5" target="uiVuiFmTCqUrsQ9-QrvC-4" edge="1">
          <mxGeometry width="50" height="50" relative="1" as="geometry">
            <mxPoint x="-204" y="190" as="sourcePoint" />
            <mxPoint x="-154" y="140" as="targetPoint" />
          </mxGeometry>
        </mxCell>
        <mxCell id="uiVuiFmTCqUrsQ9-QrvC-15" value="" style="endArrow=none;html=1;rounded=0;fontSize=12;startSize=8;endSize=8;curved=1;exitX=0.5;exitY=0;exitDx=0;exitDy=0;entryX=0;entryY=0.5;entryDx=0;entryDy=0;" parent="1" source="uiVuiFmTCqUrsQ9-QrvC-3" target="uiVuiFmTCqUrsQ9-QrvC-5" edge="1">
          <mxGeometry width="50" height="50" relative="1" as="geometry">
            <mxPoint x="-374.5" y="296" as="sourcePoint" />
            <mxPoint x="-374.5" y="206" as="targetPoint" />
          </mxGeometry>
        </mxCell>
        <mxCell id="uiVuiFmTCqUrsQ9-QrvC-18" value="&lt;b&gt;מכילה כמות&amp;nbsp;&lt;/b&gt;" style="rhombus;whiteSpace=wrap;html=1;" parent="1" vertex="1">
          <mxGeometry x="72" y="155" width="80" height="80" as="geometry" />
        </mxCell>
        <mxCell id="uiVuiFmTCqUrsQ9-QrvC-20" value="" style="endArrow=none;html=1;rounded=0;fontSize=12;startSize=8;endSize=8;curved=1;exitX=0.5;exitY=0;exitDx=0;exitDy=0;" parent="1" source="uiVuiFmTCqUrsQ9-QrvC-18" target="uiVuiFmTCqUrsQ9-QrvC-1" edge="1">
          <mxGeometry width="50" height="50" relative="1" as="geometry">
            <mxPoint x="111.5" y="148" as="sourcePoint" />
            <mxPoint x="111.5" y="58" as="targetPoint" />
          </mxGeometry>
        </mxCell>
        <mxCell id="uiVuiFmTCqUrsQ9-QrvC-21" value="" style="endArrow=none;html=1;rounded=0;fontSize=12;startSize=8;endSize=8;curved=1;" parent="1" source="uiVuiFmTCqUrsQ9-QrvC-2" target="uiVuiFmTCqUrsQ9-QrvC-18" edge="1">
          <mxGeometry width="50" height="50" relative="1" as="geometry">
            <mxPoint x="112" y="331" as="sourcePoint" />
            <mxPoint x="111.5" y="234" as="targetPoint" />
          </mxGeometry>
        </mxCell>
        <mxCell id="uiVuiFmTCqUrsQ9-QrvC-32" value="&lt;b&gt;צופה\מבטל&lt;/b&gt;" style="rhombus;whiteSpace=wrap;html=1;" parent="1" vertex="1">
          <mxGeometry x="-428" y="322" width="80" height="80" as="geometry" />
        </mxCell>
        <mxCell id="uiVuiFmTCqUrsQ9-QrvC-34" value="" style="endArrow=none;html=1;rounded=0;fontSize=12;startSize=8;endSize=8;curved=1;exitX=1;exitY=0.5;exitDx=0;exitDy=0;entryX=0;entryY=0.5;entryDx=0;entryDy=0;" parent="1" source="uiVuiFmTCqUrsQ9-QrvC-32" target="uiVuiFmTCqUrsQ9-QrvC-2" edge="1">
          <mxGeometry width="50" height="50" relative="1" as="geometry">
            <mxPoint x="-276" y="214" as="sourcePoint" />
            <mxPoint x="-252" y="349" as="targetPoint" />
          </mxGeometry>
        </mxCell>
        <mxCell id="uiVuiFmTCqUrsQ9-QrvC-36" value="" style="endArrow=none;html=1;rounded=0;fontSize=12;startSize=8;endSize=8;curved=1;exitX=1;exitY=1;exitDx=0;exitDy=0;entryX=0;entryY=0.5;entryDx=0;entryDy=0;" parent="1" source="uiVuiFmTCqUrsQ9-QrvC-3" target="uiVuiFmTCqUrsQ9-QrvC-32" edge="1">
          <mxGeometry width="50" height="50" relative="1" as="geometry">
            <mxPoint x="-490" y="339.5" as="sourcePoint" />
            <mxPoint x="-432" y="339.5" as="targetPoint" />
          </mxGeometry>
        </mxCell>
        <mxCell id="uiVuiFmTCqUrsQ9-QrvC-37" value="&lt;b&gt;מבצע&lt;/b&gt;" style="rhombus;whiteSpace=wrap;html=1;" parent="1" vertex="1">
          <mxGeometry x="-194" y="199" width="80" height="80" as="geometry" />
        </mxCell>
        <mxCell id="uiVuiFmTCqUrsQ9-QrvC-38" value="" style="endArrow=none;html=1;rounded=0;fontSize=12;startSize=8;endSize=8;curved=1;entryX=1;entryY=1;entryDx=0;entryDy=0;exitX=0;exitY=0;exitDx=0;exitDy=0;" parent="1" source="uiVuiFmTCqUrsQ9-QrvC-37" target="uiVuiFmTCqUrsQ9-QrvC-4" edge="1">
          <mxGeometry width="50" height="50" relative="1" as="geometry">
            <mxPoint x="-276" y="214" as="sourcePoint" />
            <mxPoint x="-226" y="164" as="targetPoint" />
          </mxGeometry>
        </mxCell>
        <mxCell id="uiVuiFmTCqUrsQ9-QrvC-39" value="" style="endArrow=none;html=1;rounded=0;fontSize=12;startSize=8;endSize=8;curved=1;entryX=0.867;entryY=0.633;entryDx=0;entryDy=0;exitX=0.25;exitY=0;exitDx=0;exitDy=0;entryPerimeter=0;" parent="1" source="uiVuiFmTCqUrsQ9-QrvC-2" target="uiVuiFmTCqUrsQ9-QrvC-37" edge="1">
          <mxGeometry width="50" height="50" relative="1" as="geometry">
            <mxPoint x="-226" y="297" as="sourcePoint" />
            <mxPoint x="-324" y="200" as="targetPoint" />
          </mxGeometry>
        </mxCell>
        <mxCell id="uiVuiFmTCqUrsQ9-QrvC-41" value="" style="endArrow=none;html=1;rounded=0;fontSize=12;startSize=8;endSize=8;curved=1;exitX=0.75;exitY=1;exitDx=0;exitDy=0;entryX=0.433;entryY=-0.015;entryDx=0;entryDy=0;entryPerimeter=0;" parent="1" source="uiVuiFmTCqUrsQ9-QrvC-1" target="uiVuiFmTCqUrsQ9-QrvC-48" edge="1">
          <mxGeometry width="50" height="50" relative="1" as="geometry">
            <mxPoint x="-25" y="141" as="sourcePoint" />
            <mxPoint x="72" y="78" as="targetPoint" />
          </mxGeometry>
        </mxCell>
        <mxCell id="uiVuiFmTCqUrsQ9-QrvC-42" value="" style="endArrow=none;html=1;rounded=0;fontSize=12;startSize=8;endSize=8;curved=1;exitX=0.943;exitY=0.987;exitDx=0;exitDy=0;entryX=0;entryY=0.5;entryDx=0;entryDy=0;exitPerimeter=0;" parent="1" source="uiVuiFmTCqUrsQ9-QrvC-1" target="uiVuiFmTCqUrsQ9-QrvC-45" edge="1">
          <mxGeometry width="50" height="50" relative="1" as="geometry">
            <mxPoint x="-15" y="151" as="sourcePoint" />
            <mxPoint x="82" y="88" as="targetPoint" />
          </mxGeometry>
        </mxCell>
        <mxCell id="uiVuiFmTCqUrsQ9-QrvC-43" value="" style="endArrow=none;html=1;rounded=0;fontSize=12;startSize=8;endSize=8;curved=1;exitX=0.443;exitY=0.013;exitDx=0;exitDy=0;entryX=0.5;entryY=1;entryDx=0;entryDy=0;exitPerimeter=0;" parent="1" source="uiVuiFmTCqUrsQ9-QrvC-1" target="uiVuiFmTCqUrsQ9-QrvC-44" edge="1">
          <mxGeometry width="50" height="50" relative="1" as="geometry">
            <mxPoint x="79" as="sourcePoint" />
            <mxPoint x="176" y="-63" as="targetPoint" />
          </mxGeometry>
        </mxCell>
        <mxCell id="uiVuiFmTCqUrsQ9-QrvC-44" value="&lt;font style=&quot;font-size: 14px;&quot;&gt;שם מוצר&lt;/font&gt;" style="ellipse;whiteSpace=wrap;html=1;" parent="1" vertex="1">
          <mxGeometry y="-149" width="91" height="40" as="geometry" />
        </mxCell>
        <mxCell id="uiVuiFmTCqUrsQ9-QrvC-45" value="&lt;font style=&quot;font-size: 14px;&quot;&gt;כמות במלאי&lt;/font&gt;" style="ellipse;whiteSpace=wrap;html=1;" parent="1" vertex="1">
          <mxGeometry x="277" y="51" width="91" height="40" as="geometry" />
        </mxCell>
        <mxCell id="uiVuiFmTCqUrsQ9-QrvC-46" value="&lt;font style=&quot;font-size: 14px;&quot;&gt;תיאור המוצר&lt;/font&gt;" style="ellipse;whiteSpace=wrap;html=1;" parent="1" vertex="1">
          <mxGeometry x="275" y="-12" width="91" height="40" as="geometry" />
        </mxCell>
        <mxCell id="uiVuiFmTCqUrsQ9-QrvC-47" value="&lt;font style=&quot;font-size: 14px;&quot;&gt;שם המותג&lt;/font&gt;" style="ellipse;whiteSpace=wrap;html=1;" parent="1" vertex="1">
          <mxGeometry x="95" y="-177" width="91" height="40" as="geometry" />
        </mxCell>
        <mxCell id="uiVuiFmTCqUrsQ9-QrvC-48" value="&lt;font style=&quot;font-size: 14px;&quot;&gt;תמונה&lt;/font&gt;" style="ellipse;whiteSpace=wrap;html=1;" parent="1" vertex="1">
          <mxGeometry x="215" y="115" width="91" height="40" as="geometry" />
        </mxCell>
        <mxCell id="uiVuiFmTCqUrsQ9-QrvC-49" value="&lt;font style=&quot;font-size: 14px;&quot;&gt;מחיר מוצר&lt;/font&gt;" style="ellipse;whiteSpace=wrap;html=1;" parent="1" vertex="1">
          <mxGeometry x="186" y="-140" width="91" height="40" as="geometry" />
        </mxCell>
        <mxCell id="uiVuiFmTCqUrsQ9-QrvC-51" value="&lt;span style=&quot;font-size: 14px;&quot;&gt;ID מוצר&lt;/span&gt;" style="ellipse;whiteSpace=wrap;html=1;" parent="1" vertex="1">
          <mxGeometry x="238" y="-85" width="91" height="40" as="geometry" />
        </mxCell>
        <mxCell id="uiVuiFmTCqUrsQ9-QrvC-52" style="edgeStyle=none;curved=1;rounded=0;orthogonalLoop=1;jettySize=auto;html=1;exitX=0.5;exitY=1;exitDx=0;exitDy=0;fontSize=12;startSize=8;endSize=8;" parent="1" source="uiVuiFmTCqUrsQ9-QrvC-51" target="uiVuiFmTCqUrsQ9-QrvC-51" edge="1">
          <mxGeometry relative="1" as="geometry" />
        </mxCell>
        <mxCell id="uiVuiFmTCqUrsQ9-QrvC-54" style="edgeStyle=none;curved=1;rounded=0;orthogonalLoop=1;jettySize=auto;html=1;exitX=0.5;exitY=1;exitDx=0;exitDy=0;fontSize=12;startSize=8;endSize=8;" parent="1" source="uiVuiFmTCqUrsQ9-QrvC-49" target="uiVuiFmTCqUrsQ9-QrvC-49" edge="1">
          <mxGeometry relative="1" as="geometry" />
        </mxCell>
        <mxCell id="uiVuiFmTCqUrsQ9-QrvC-55" value="" style="endArrow=none;html=1;rounded=0;fontSize=12;startSize=8;endSize=8;curved=1;exitX=1;exitY=0.75;exitDx=0;exitDy=0;entryX=0;entryY=0.5;entryDx=0;entryDy=0;" parent="1" source="uiVuiFmTCqUrsQ9-QrvC-1" target="uiVuiFmTCqUrsQ9-QrvC-46" edge="1">
          <mxGeometry width="50" height="50" relative="1" as="geometry">
            <mxPoint x="115" y="9" as="sourcePoint" />
            <mxPoint x="87" y="-111" as="targetPoint" />
          </mxGeometry>
        </mxCell>
        <mxCell id="uiVuiFmTCqUrsQ9-QrvC-56" value="" style="endArrow=none;html=1;rounded=0;fontSize=12;startSize=8;endSize=8;curved=1;exitX=1;exitY=0.5;exitDx=0;exitDy=0;entryX=0;entryY=1;entryDx=0;entryDy=0;" parent="1" source="uiVuiFmTCqUrsQ9-QrvC-1" target="uiVuiFmTCqUrsQ9-QrvC-51" edge="1">
          <mxGeometry width="50" height="50" relative="1" as="geometry">
            <mxPoint x="125" y="19" as="sourcePoint" />
            <mxPoint x="97" y="-101" as="targetPoint" />
          </mxGeometry>
        </mxCell>
        <mxCell id="uiVuiFmTCqUrsQ9-QrvC-57" value="" style="endArrow=none;html=1;rounded=0;fontSize=12;startSize=8;endSize=8;curved=1;exitX=0.75;exitY=0;exitDx=0;exitDy=0;entryX=0;entryY=1;entryDx=0;entryDy=0;" parent="1" source="uiVuiFmTCqUrsQ9-QrvC-1" target="uiVuiFmTCqUrsQ9-QrvC-49" edge="1">
          <mxGeometry width="50" height="50" relative="1" as="geometry">
            <mxPoint x="135" y="29" as="sourcePoint" />
            <mxPoint x="107" y="-91" as="targetPoint" />
          </mxGeometry>
        </mxCell>
        <mxCell id="uiVuiFmTCqUrsQ9-QrvC-58" value="" style="endArrow=none;html=1;rounded=0;fontSize=12;startSize=8;endSize=8;curved=1;exitX=0.5;exitY=0;exitDx=0;exitDy=0;entryX=0.5;entryY=1;entryDx=0;entryDy=0;" parent="1" source="uiVuiFmTCqUrsQ9-QrvC-1" target="uiVuiFmTCqUrsQ9-QrvC-47" edge="1">
          <mxGeometry width="50" height="50" relative="1" as="geometry">
            <mxPoint x="145" y="39" as="sourcePoint" />
            <mxPoint x="117" y="-81" as="targetPoint" />
          </mxGeometry>
        </mxCell>
        <mxCell id="uiVuiFmTCqUrsQ9-QrvC-61" value="&lt;font style=&quot;font-size: 14px;&quot;&gt;ID מספר הזמנה&lt;/font&gt;" style="ellipse;whiteSpace=wrap;html=1;" parent="1" vertex="1">
          <mxGeometry x="277" y="252" width="91" height="40" as="geometry" />
        </mxCell>
        <mxCell id="uiVuiFmTCqUrsQ9-QrvC-62" value="&lt;font style=&quot;font-size: 14px;&quot;&gt;תאריך הגעה מקסימלי&lt;/font&gt;" style="ellipse;whiteSpace=wrap;html=1;" parent="1" vertex="1">
          <mxGeometry x="4" y="515" width="91" height="40" as="geometry" />
        </mxCell>
        <mxCell id="uiVuiFmTCqUrsQ9-QrvC-64" value="&lt;font style=&quot;font-size: 14px;&quot;&gt;סיסמא&lt;/font&gt;" style="ellipse;whiteSpace=wrap;html=1;" parent="1" vertex="1">
          <mxGeometry x="-683" y="-192" width="91" height="40" as="geometry" />
        </mxCell>
        <mxCell id="uiVuiFmTCqUrsQ9-QrvC-65" value="&lt;font style=&quot;font-size: 14px;&quot;&gt;מייל&lt;/font&gt;" style="ellipse;whiteSpace=wrap;html=1;" parent="1" vertex="1">
          <mxGeometry x="-812" y="-100" width="91" height="40" as="geometry" />
        </mxCell>
        <mxCell id="uiVuiFmTCqUrsQ9-QrvC-66" value="&lt;font style=&quot;font-size: 14px;&quot;&gt;ID משתמש&lt;/font&gt;" style="ellipse;whiteSpace=wrap;html=1;" parent="1" vertex="1">
          <mxGeometry x="-401" y="-140" width="91" height="40" as="geometry" />
        </mxCell>
        <mxCell id="uiVuiFmTCqUrsQ9-QrvC-67" value="&lt;font style=&quot;font-size: 14px;&quot;&gt;שם משתמש&lt;/font&gt;" style="ellipse;whiteSpace=wrap;html=1;" parent="1" vertex="1">
          <mxGeometry x="-549" y="-186" width="91" height="40" as="geometry" />
        </mxCell>
        <mxCell id="uiVuiFmTCqUrsQ9-QrvC-70" value="" style="endArrow=none;html=1;rounded=0;fontSize=12;startSize=8;endSize=8;curved=1;exitX=0.25;exitY=0;exitDx=0;exitDy=0;entryX=0.5;entryY=1;entryDx=0;entryDy=0;" parent="1" source="uiVuiFmTCqUrsQ9-QrvC-4" target="uiVuiFmTCqUrsQ9-QrvC-64" edge="1">
          <mxGeometry width="50" height="50" relative="1" as="geometry">
            <mxPoint x="125" y="19" as="sourcePoint" />
            <mxPoint x="66" y="-89" as="targetPoint" />
          </mxGeometry>
        </mxCell>
        <mxCell id="uiVuiFmTCqUrsQ9-QrvC-71" value="" style="endArrow=none;html=1;rounded=0;fontSize=12;startSize=8;endSize=8;curved=1;exitX=1;exitY=0;exitDx=0;exitDy=0;entryX=0;entryY=1;entryDx=0;entryDy=0;" parent="1" source="uiVuiFmTCqUrsQ9-QrvC-4" target="uiVuiFmTCqUrsQ9-QrvC-66" edge="1">
          <mxGeometry width="50" height="50" relative="1" as="geometry">
            <mxPoint x="135" y="29" as="sourcePoint" />
            <mxPoint x="76" y="-79" as="targetPoint" />
          </mxGeometry>
        </mxCell>
        <mxCell id="uiVuiFmTCqUrsQ9-QrvC-72" value="" style="endArrow=none;html=1;rounded=0;fontSize=12;startSize=8;endSize=8;curved=1;exitX=0.75;exitY=0;exitDx=0;exitDy=0;entryX=0.5;entryY=1;entryDx=0;entryDy=0;" parent="1" source="uiVuiFmTCqUrsQ9-QrvC-4" target="uiVuiFmTCqUrsQ9-QrvC-67" edge="1">
          <mxGeometry width="50" height="50" relative="1" as="geometry">
            <mxPoint x="145" y="39" as="sourcePoint" />
            <mxPoint x="86" y="-69" as="targetPoint" />
          </mxGeometry>
        </mxCell>
        <mxCell id="uiVuiFmTCqUrsQ9-QrvC-75" value="" style="endArrow=none;html=1;rounded=0;fontSize=12;startSize=8;endSize=8;curved=1;exitX=0;exitY=0.5;exitDx=0;exitDy=0;entryX=1;entryY=1;entryDx=0;entryDy=0;" parent="1" source="uiVuiFmTCqUrsQ9-QrvC-4" target="uiVuiFmTCqUrsQ9-QrvC-65" edge="1">
          <mxGeometry width="50" height="50" relative="1" as="geometry">
            <mxPoint x="-579" y="1" as="sourcePoint" />
            <mxPoint x="-683" y="-65" as="targetPoint" />
          </mxGeometry>
        </mxCell>
        <mxCell id="94FtIaKmHescHkrKDo5W-1" value="&lt;font style=&quot;font-size: 14px;&quot;&gt;סכום הזמנה&lt;/font&gt;" style="ellipse;whiteSpace=wrap;html=1;" parent="1" vertex="1">
          <mxGeometry x="302" y="355" width="91" height="40" as="geometry" />
        </mxCell>
        <mxCell id="94FtIaKmHescHkrKDo5W-2" value="&lt;font style=&quot;font-size: 14px;&quot;&gt;כתובת&lt;/font&gt;" style="ellipse;whiteSpace=wrap;html=1;" parent="1" vertex="1">
          <mxGeometry x="211" y="544" width="91" height="40" as="geometry" />
        </mxCell>
        <mxCell id="94FtIaKmHescHkrKDo5W-3" value="&lt;font style=&quot;font-size: 14px;&quot;&gt;תאריך הזמנה&lt;/font&gt;" style="ellipse;whiteSpace=wrap;html=1;" parent="1" vertex="1">
          <mxGeometry x="99" y="565" width="91" height="40" as="geometry" />
        </mxCell>
        <mxCell id="94FtIaKmHescHkrKDo5W-4" value="&lt;font style=&quot;font-size: 14px;&quot;&gt;שיטת תשלום&lt;/font&gt;" style="ellipse;whiteSpace=wrap;html=1;" parent="1" vertex="1">
          <mxGeometry x="302" y="471" width="91" height="40" as="geometry" />
        </mxCell>
        <mxCell id="94FtIaKmHescHkrKDo5W-5" style="edgeStyle=none;curved=1;rounded=0;orthogonalLoop=1;jettySize=auto;html=1;exitX=0.5;exitY=1;exitDx=0;exitDy=0;fontSize=12;startSize=8;endSize=8;" parent="1" source="uiVuiFmTCqUrsQ9-QrvC-61" target="uiVuiFmTCqUrsQ9-QrvC-61" edge="1">
          <mxGeometry relative="1" as="geometry" />
        </mxCell>
        <mxCell id="94FtIaKmHescHkrKDo5W-6" value="" style="endArrow=none;html=1;rounded=0;fontSize=12;startSize=8;endSize=8;curved=1;exitX=0.5;exitY=0;exitDx=0;exitDy=0;entryX=0.75;entryY=1;entryDx=0;entryDy=0;" parent="1" source="94FtIaKmHescHkrKDo5W-2" target="uiVuiFmTCqUrsQ9-QrvC-2" edge="1">
          <mxGeometry width="50" height="50" relative="1" as="geometry">
            <mxPoint x="152" y="68" as="sourcePoint" />
            <mxPoint x="264" y="124" as="targetPoint" />
          </mxGeometry>
        </mxCell>
        <mxCell id="94FtIaKmHescHkrKDo5W-7" value="&lt;span style=&quot;color: rgba(0, 0, 0, 0); font-family: monospace; font-size: 0px; text-align: start;&quot;&gt;%3CmxGraphModel%3E%3Croot%3E%3CmxCell%20id%3D%220%22%2F%3E%3CmxCell%20id%3D%221%22%20parent%3D%220%22%2F%3E%3CmxCell%20id%3D%222%22%20value%3D%22%22%20style%3D%22endArrow%3Dnone%3Bhtml%3D1%3Brounded%3D0%3BfontSize%3D12%3BstartSize%3D8%3BendSize%3D8%3Bcurved%3D1%3BexitX%3D0.75%3BexitY%3D1%3BexitDx%3D0%3BexitDy%3D0%3BentryX%3D0.433%3BentryY%3D-0.015%3BentryDx%3D0%3BentryDy%3D0%3BentryPerimeter%3D0%3B%22%20edge%3D%221%22%20parent%3D%221%22%3E%3CmxGeometry%20width%3D%2250%22%20height%3D%2250%22%20relative%3D%221%22%20as%3D%22geometry%22%3E%3CmxPoint%20x%3D%22142%22%20y%3D%2258%22%20as%3D%22sourcePoint%22%2F%3E%3CmxPoint%20x%3D%22254%22%20y%3D%22114%22%20as%3D%22targetPoint%22%2F%3E%3C%2FmxGeometry%3E%3C%2FmxCell%3E%3C%2Froot%3E%3C%2FmxGraphModel%3E&lt;/span&gt;&lt;span style=&quot;color: rgba(0, 0, 0, 0); font-family: monospace; font-size: 0px; text-align: start;&quot;&gt;%3CmxGraphModel%3E%3Croot%3E%3CmxCell%20id%3D%220%22%2F%3E%3CmxCell%20id%3D%221%22%20parent%3D%220%22%2F%3E%3CmxCell%20id%3D%222%22%20value%3D%22%22%20style%3D%22endArrow%3Dnone%3Bhtml%3D1%3Brounded%3D0%3BfontSize%3D12%3BstartSize%3D8%3BendSize%3D8%3Bcurved%3D1%3BexitX%3D0.75%3BexitY%3D1%3BexitDx%3D0%3BexitDy%3D0%3BentryX%3D0.433%3BentryY%3D-0.015%3BentryDx%3D0%3BentryDy%3D0%3BentryPerimeter%3D0%3B%22%20edge%3D%221%22%20parent%3D%221%22%3E%3CmxGeometry%20width%3D%2250%22%20height%3D%2250%22%20relative%3D%221%22%20as%3D%22geometry%22%3E%3CmxPoint%20x%3D%22142%22%20y%3D%2258%22%20as%3D%22sourcePoint%22%2F%3E%3CmxPoint%20x%3D%22254%22%20y%3D%22114%22%20as%3D%22targetPoint%22%2F%3E%3C%2FmxGeometry%3E%3C%2FmxCell%3E%3C%2Froot%3E%3C%2FmxGraphModel%3E&lt;/span&gt;&lt;span style=&quot;color: rgba(0, 0, 0, 0); font-family: monospace; font-size: 0px; text-align: start;&quot;&gt;%3CmxGraphModel%3E%3Croot%3E%3CmxCell%20id%3D%220%22%2F%3E%3CmxCell%20id%3D%221%22%20parent%3D%220%22%2F%3E%3CmxCell%20id%3D%222%22%20value%3D%22%22%20style%3D%22endArrow%3Dnone%3Bhtml%3D1%3Brounded%3D0%3BfontSize%3D12%3BstartSize%3D8%3BendSize%3D8%3Bcurved%3D1%3BexitX%3D0.75%3BexitY%3D1%3BexitDx%3D0%3BexitDy%3D0%3BentryX%3D0.433%3BentryY%3D-0.015%3BentryDx%3D0%3BentryDy%3D0%3BentryPerimeter%3D0%3B%22%20edge%3D%221%22%20parent%3D%221%22%3E%3CmxGeometry%20width%3D%2250%22%20height%3D%2250%22%20relative%3D%221%22%20as%3D%22geometry%22%3E%3CmxPoint%20x%3D%22142%22%20y%3D%2258%22%20as%3D%22sourcePoint%22%2F%3E%3CmxPoint%20x%3D%22254%22%20y%3D%22114%22%20as%3D%22targetPoint%22%2F%3E%3C%2FmxGeometry%3E%3C%2FmxCell%3E%3C%2Froot%3E%3C%2FmxGraphModel%3E&lt;/span&gt;" style="endArrow=none;html=1;rounded=0;fontSize=12;startSize=8;endSize=8;curved=1;exitX=1;exitY=1;exitDx=0;exitDy=0;entryX=0;entryY=0;entryDx=0;entryDy=0;" parent="1" source="uiVuiFmTCqUrsQ9-QrvC-2" target="94FtIaKmHescHkrKDo5W-4" edge="1">
          <mxGeometry width="50" height="50" relative="1" as="geometry">
            <mxPoint x="162" y="78" as="sourcePoint" />
            <mxPoint x="274" y="134" as="targetPoint" />
          </mxGeometry>
        </mxCell>
        <mxCell id="94FtIaKmHescHkrKDo5W-8" value="" style="endArrow=none;html=1;rounded=0;fontSize=12;startSize=8;endSize=8;curved=1;exitX=0;exitY=0.5;exitDx=0;exitDy=0;entryX=1;entryY=0.75;entryDx=0;entryDy=0;" parent="1" source="94FtIaKmHescHkrKDo5W-1" target="uiVuiFmTCqUrsQ9-QrvC-2" edge="1">
          <mxGeometry width="50" height="50" relative="1" as="geometry">
            <mxPoint x="172" y="88" as="sourcePoint" />
            <mxPoint x="284" y="144" as="targetPoint" />
          </mxGeometry>
        </mxCell>
        <mxCell id="94FtIaKmHescHkrKDo5W-9" value="" style="endArrow=none;html=1;rounded=0;fontSize=12;startSize=8;endSize=8;curved=1;exitX=1;exitY=0;exitDx=0;exitDy=0;entryX=0;entryY=0.5;entryDx=0;entryDy=0;" parent="1" source="uiVuiFmTCqUrsQ9-QrvC-2" target="uiVuiFmTCqUrsQ9-QrvC-61" edge="1">
          <mxGeometry width="50" height="50" relative="1" as="geometry">
            <mxPoint x="182" y="98" as="sourcePoint" />
            <mxPoint x="294" y="154" as="targetPoint" />
          </mxGeometry>
        </mxCell>
        <mxCell id="94FtIaKmHescHkrKDo5W-10" value="" style="endArrow=none;html=1;rounded=0;fontSize=12;startSize=8;endSize=8;curved=1;exitX=0.5;exitY=0;exitDx=0;exitDy=0;entryX=0.5;entryY=1;entryDx=0;entryDy=0;" parent="1" source="94FtIaKmHescHkrKDo5W-3" target="uiVuiFmTCqUrsQ9-QrvC-2" edge="1">
          <mxGeometry width="50" height="50" relative="1" as="geometry">
            <mxPoint x="214" y="537" as="sourcePoint" />
            <mxPoint x="156" y="409" as="targetPoint" />
          </mxGeometry>
        </mxCell>
        <mxCell id="94FtIaKmHescHkrKDo5W-11" value="" style="endArrow=none;html=1;rounded=0;fontSize=12;startSize=8;endSize=8;curved=1;exitX=0.25;exitY=1;exitDx=0;exitDy=0;entryX=0.5;entryY=0;entryDx=0;entryDy=0;" parent="1" source="uiVuiFmTCqUrsQ9-QrvC-2" target="uiVuiFmTCqUrsQ9-QrvC-62" edge="1">
          <mxGeometry width="50" height="50" relative="1" as="geometry">
            <mxPoint x="224" y="547" as="sourcePoint" />
            <mxPoint x="166" y="419" as="targetPoint" />
          </mxGeometry>
        </mxCell>
        <mxCell id="94FtIaKmHescHkrKDo5W-12" value="&lt;font style=&quot;font-size: 15px;&quot;&gt;1&lt;/font&gt;" style="text;html=1;align=center;verticalAlign=middle;whiteSpace=wrap;rounded=0;" parent="1" vertex="1">
          <mxGeometry x="-488" y="332" width="60" height="30" as="geometry" />
        </mxCell>
        <mxCell id="94FtIaKmHescHkrKDo5W-13" value="&lt;font style=&quot;font-size: 15px;&quot;&gt;M&lt;/font&gt;" style="text;html=1;align=center;verticalAlign=middle;whiteSpace=wrap;rounded=0;" parent="1" vertex="1">
          <mxGeometry y="345" width="60" height="30" as="geometry" />
        </mxCell>
        <mxCell id="94FtIaKmHescHkrKDo5W-16" value="&lt;font style=&quot;font-size: 15px;&quot;&gt;1&lt;/font&gt;" style="text;html=1;align=center;verticalAlign=middle;whiteSpace=wrap;rounded=0;" parent="1" vertex="1">
          <mxGeometry x="-492" y="259" width="60" height="30" as="geometry" />
        </mxCell>
        <mxCell id="94FtIaKmHescHkrKDo5W-17" value="&lt;font style=&quot;font-size: 15px;&quot;&gt;M&lt;/font&gt;" style="text;html=1;align=center;verticalAlign=middle;whiteSpace=wrap;rounded=0;" parent="1" vertex="1">
          <mxGeometry x="47" y="310" width="60" height="30" as="geometry" />
        </mxCell>
        <mxCell id="94FtIaKmHescHkrKDo5W-18" value="&lt;font style=&quot;font-size: 15px;&quot;&gt;M&lt;/font&gt;" style="text;html=1;align=center;verticalAlign=middle;whiteSpace=wrap;rounded=0;" parent="1" vertex="1">
          <mxGeometry x="-485" y="28" width="60" height="30" as="geometry" />
        </mxCell>
        <mxCell id="94FtIaKmHescHkrKDo5W-19" value="&lt;font style=&quot;font-size: 15px;&quot;&gt;M&lt;/font&gt;" style="text;html=1;align=center;verticalAlign=middle;whiteSpace=wrap;rounded=0;" parent="1" vertex="1">
          <mxGeometry x="4" y="44" width="60" height="30" as="geometry" />
        </mxCell>
        <mxCell id="94FtIaKmHescHkrKDo5W-20" value="&lt;font style=&quot;font-size: 15px;&quot;&gt;M&lt;/font&gt;" style="text;html=1;align=center;verticalAlign=middle;whiteSpace=wrap;rounded=0;" parent="1" vertex="1">
          <mxGeometry y="6" width="60" height="30" as="geometry" />
        </mxCell>
        <mxCell id="94FtIaKmHescHkrKDo5W-21" value="&lt;font style=&quot;font-size: 15px;&quot;&gt;M&lt;/font&gt;" style="text;html=1;align=center;verticalAlign=middle;whiteSpace=wrap;rounded=0;" parent="1" vertex="1">
          <mxGeometry x="-485" y="-7" width="60" height="30" as="geometry" />
        </mxCell>
        <mxCell id="94FtIaKmHescHkrKDo5W-22" value="&lt;font style=&quot;font-size: 15px;&quot;&gt;M&lt;/font&gt;" style="text;html=1;align=center;verticalAlign=middle;whiteSpace=wrap;rounded=0;" parent="1" vertex="1">
          <mxGeometry x="95" y="310" width="60" height="30" as="geometry" />
        </mxCell>
        <mxCell id="94FtIaKmHescHkrKDo5W-23" value="&lt;font style=&quot;font-size: 15px;&quot;&gt;M&lt;/font&gt;" style="text;html=1;align=center;verticalAlign=middle;whiteSpace=wrap;rounded=0;" parent="1" vertex="1">
          <mxGeometry x="74" y="53" width="60" height="30" as="geometry" />
        </mxCell>
        <mxCell id="94FtIaKmHescHkrKDo5W-24" value="&lt;b&gt;&lt;font style=&quot;font-size: 30px;&quot;&gt;ERD&amp;nbsp;&lt;/font&gt;&lt;/b&gt;" style="text;html=1;align=center;verticalAlign=middle;whiteSpace=wrap;rounded=0;" parent="1" vertex="1">
          <mxGeometry x="-206" y="-539" width="60" height="30" as="geometry" />
        </mxCell>
      </root>
    </mxGraphModel>
  </diagram>
  <diagram id="zCZMPvC1Frt8YkekZHTN" name="‫עמוד-2‬">
    <mxGraphModel dx="1050" dy="607" grid="0" gridSize="10" guides="1" tooltips="1" connect="1" arrows="1" fold="1" page="0" pageScale="1" pageWidth="827" pageHeight="1169" math="0" shadow="0">
      <root>
        <mxCell id="0" />
        <mxCell id="1" parent="0" />
      </root>
    </mxGraphModel>
  </diagram>
</mxfile>
